<svg xmlns="http://www.w3.org/2000/svg" xmlns:svg="http://www.w3.org/2000/svg" xmlns:xlink="http://www.w3.org/1999/xlink" id="svg5596" width="48" height="48" version="1.0"><defs id="defs5599"><linearGradient id="linearGradient12663" x1="19.395" x2="22.225" y1="30.001" y2="32.643" gradientTransform="matrix(0.984808,0.173648,-0.173648,0.984808,-6.57769,0.52398)" gradientUnits="userSpaceOnUse" xlink:href="#linearGradient6939"/><linearGradient id="linearGradient11599"><stop style="stop-color:#5b5b5b;stop-opacity:1" id="stop11601" offset="0"/><stop style="stop-color:#979797;stop-opacity:1" id="stop11603" offset=".5"/><stop style="stop-color:#454545;stop-opacity:1" id="stop11605" offset="1"/></linearGradient><linearGradient id="linearGradient11573"><stop style="stop-color:#ef2929;stop-opacity:1" id="stop11575" offset="0"/><stop style="stop-color:#f79090;stop-opacity:1" id="stop11585" offset=".5"/><stop style="stop-color:#ef2929;stop-opacity:1" id="stop11577" offset="1"/></linearGradient><linearGradient id="linearGradient3394"><stop style="stop-color:#c00;stop-opacity:.49803922" id="stop3402" offset="0"/><stop style="stop-color:#c00;stop-opacity:1" id="stop3404" offset="1"/></linearGradient><linearGradient id="linearGradient3243"><stop style="stop-color:#ef2929;stop-opacity:1" id="stop3245" offset="0"/><stop style="stop-color:#efc8c8;stop-opacity:1" id="stop3253" offset=".5"/><stop style="stop-color:#ef2929;stop-opacity:1" id="stop3247" offset="1"/></linearGradient><linearGradient id="linearGradient3229"><stop style="stop-color:#ef2929;stop-opacity:1" id="stop3231" offset="0"/><stop style="stop-color:#f35e5e;stop-opacity:1" id="stop3241" offset="1"/></linearGradient><linearGradient id="linearGradient3197"><stop style="stop-color:#c00;stop-opacity:1" id="stop3199" offset="0"/><stop style="stop-color:#c00;stop-opacity:.49803922" id="stop3205" offset="0"/><stop style="stop-color:#c00;stop-opacity:1" id="stop3201" offset="1"/></linearGradient><linearGradient id="linearGradient2552" x1="32.17" x2="36.31" y1="32.341" y2="37.614" gradientTransform="matrix(0.955799,0.125613,-0.13219,1.005843,8.433071,-4.87925)" gradientUnits="userSpaceOnUse" xlink:href="#linearGradient2215"/><linearGradient id="linearGradient4158" x1="16.921" x2="14.717" y1="41.527" y2="27.556" gradientTransform="translate(-0.386129,-2.59755)" gradientUnits="userSpaceOnUse" xlink:href="#linearGradient4152"/><linearGradient id="linearGradient4199"><stop style="stop-color:#fff;stop-opacity:.69072163" id="stop4201" offset="0"/><stop style="stop-color:#000;stop-opacity:0" id="stop4203" offset="1"/></linearGradient><linearGradient id="linearGradient4197" x1="5.559" x2="26.937" y1="8.789" y2="48.566" gradientTransform="matrix(1.015688,0,0,1,-0.427129,-2.59755)" gradientUnits="userSpaceOnUse" xlink:href="#linearGradient4199"/><linearGradient id="linearGradient4152"><stop style="stop-color:#788492;stop-opacity:1" id="stop4154" offset="0"/><stop style="stop-color:#fafafa;stop-opacity:1" id="stop4156" offset="1"/></linearGradient><linearGradient id="linearGradient4185" x1="5.486" x2="12.297" y1="32.174" y2="27.666" gradientTransform="matrix(1.290919,0,0,1.173295,-3.854317,-8.380223)" gradientUnits="userSpaceOnUse" xlink:href="#linearGradient4152"/><linearGradient id="linearGradient4273" x1="34.869" x2="34.869" y1="39.945" y2="43.476" gradientTransform="translate(-0.386129,-2.59755)" gradientUnits="userSpaceOnUse" xlink:href="#linearGradient4242"/><linearGradient id="linearGradient4265" x1="36.634" x2="36.634" y1="38.124" y2="42.428" gradientTransform="translate(-0.386129,-2.59755)" gradientUnits="userSpaceOnUse" xlink:href="#linearGradient4242"/><linearGradient id="linearGradient4256" x1="38.897" x2="42.428" y1="38.483" y2="38.483" gradientTransform="translate(-0.386129,-2.59755)" gradientUnits="userSpaceOnUse" xlink:href="#linearGradient4242"/><linearGradient id="linearGradient4242"><stop style="stop-color:#000;stop-opacity:1" id="stop4244" offset="0"/><stop style="stop-color:#000;stop-opacity:0" id="stop4246" offset="1"/></linearGradient><linearGradient id="linearGradient4248" x1="40.497" x2="44.193" y1="37.848" y2="37.848" gradientTransform="matrix(0.864739,0,0,0.753105,5.591471,7.01265)" gradientUnits="userSpaceOnUse" xlink:href="#linearGradient4242"/><linearGradient id="linearGradient4146" x1="-5.285" x2="33.728" y1="19.362" y2="66.5" gradientTransform="matrix(0.943596,0,0,0.963374,6.792471,4.03365)" gradientUnits="userSpaceOnUse" xlink:href="#linearGradient2949"/><linearGradient id="linearGradient2215"><stop style="stop-color:#000;stop-opacity:1" id="stop2217" offset="0"/><stop style="stop-color:#505050;stop-opacity:1" id="stop2219" offset="1"/></linearGradient><linearGradient id="linearGradient4277" x1="26.248" x2="23.783" y1="38.032" y2="36.457" gradientTransform="matrix(0,0.967422,0.946165,0,-16.09433,2.21785)" gradientUnits="userSpaceOnUse" xlink:href="#linearGradient2215"/><linearGradient id="linearGradient2949"><stop style="stop-color:#fff;stop-opacity:.45038167" id="stop2951" offset="0"/><stop style="stop-color:#fff;stop-opacity:.31297711" id="stop2953" offset="1"/></linearGradient><linearGradient id="linearGradient4301" x1="29.425" x2="43.141" y1="33.593" y2="38.19" gradientTransform="translate(-14.76113,-7.34755)" gradientUnits="userSpaceOnUse" xlink:href="#linearGradient2949"/><linearGradient id="linearGradient2879"><stop style="stop-color:#000;stop-opacity:.17557251" id="stop2881" offset="0"/><stop style="stop-color:#000;stop-opacity:0" id="stop2883" offset="1"/></linearGradient><radialGradient id="radialGradient4312" cx="20.153" cy="33.637" r="15.291" fx="20.153" fy="33.637" gradientTransform="matrix(1,0,0,0.257225,0,24.98463)" gradientUnits="userSpaceOnUse" xlink:href="#linearGradient2879"/><linearGradient id="linearGradient7025" x1="52.718" x2="67.466" y1="2.316" y2="2.316" gradientTransform="matrix(0.862482,0,0,0.580718,-16.25697,11.01348)" gradientUnits="userSpaceOnUse" xlink:href="#linearGradient6721"/><linearGradient id="linearGradient7020" x1="53.169" x2="69.691" y1="24.245" y2="24.245" gradientTransform="matrix(0.71944,0,0,0.718914,-7.696252,9.471728)" gradientUnits="userSpaceOnUse" xlink:href="#linearGradient6651"/><linearGradient id="linearGradient7017" x1="61.872" x2="61.872" y1="29.615" y2="41.459" gradientTransform="matrix(0.888619,0,0,0.718914,-18.29768,9.471728)" gradientUnits="userSpaceOnUse" xlink:href="#linearGradient6629"/><linearGradient id="linearGradient7014" x1="49.853" x2="62.768" y1="64.26" y2="64.26" gradientTransform="matrix(0.718914,0,0,0.718914,-1.897103,-22.42481)" gradientUnits="userSpaceOnUse" xlink:href="#linearGradient6748"/><linearGradient id="linearGradient7010" x1="60.169" x2="60.441" y1="40.12" y2="43.87" gradientTransform="matrix(0.737307,0,0,0.770854,-8.532023,7.121636)" gradientUnits="userSpaceOnUse" xlink:href="#linearGradient6651"/><linearGradient id="linearGradient7005" x1="48.25" x2="48.25" y1="54.75" y2="71.25" gradientTransform="matrix(0.718914,0,0,0.718914,-1.897103,-20.68606)" gradientUnits="userSpaceOnUse" xlink:href="#linearGradient6835"/><radialGradient id="radialGradient6903" cx="26.782" cy="42.343" r="14.407" fx="26.782" fy="42.343" gradientTransform="matrix(1,0,0,0.282209,0,30.39355)" gradientUnits="userSpaceOnUse" xlink:href="#linearGradient6975"/><linearGradient id="linearGradient2452" x1="13.236" x2="7.752" y1="37.752" y2="42.282" gradientTransform="matrix(0.852298,0,0,0.852298,-1.675107,3.753977)" gradientUnits="userSpaceOnUse" xlink:href="#linearGradient2446"/><radialGradient id="radialGradient6981" cx="26.782" cy="42.343" r="14.407" fx="26.782" fy="42.343" gradientTransform="matrix(1,0,0,0.282209,0,30.39355)" gradientUnits="userSpaceOnUse" xlink:href="#linearGradient6975"/><radialGradient id="radialGradient6969" cx="15.415" cy="35.357" r="7.579" fx="15.415" fy="35.357" gradientTransform="matrix(0.994655,0,0,0.969322,-4.583017,0.165919)" gradientUnits="userSpaceOnUse" xlink:href="#linearGradient6963"/><linearGradient id="linearGradient6957" x1="28.059" x2="33.437" y1="18.868" y2="23.743" gradientTransform="translate(-3.90695,-1.802856)" gradientUnits="userSpaceOnUse" xlink:href="#linearGradient6951"/><linearGradient id="linearGradient6945" x1="19.395" x2="23.109" y1="30.001" y2="33.439" gradientTransform="translate(-53.05087,38.14868)" gradientUnits="userSpaceOnUse" xlink:href="#linearGradient6939"/><linearGradient id="linearGradient6939"><stop style="stop-color:#ddd;stop-opacity:1" id="stop6941" offset="0"/><stop style="stop-color:#fff;stop-opacity:1" id="stop6947" offset=".333"/><stop style="stop-color:#b7b7b7;stop-opacity:1" id="stop6949" offset=".667"/><stop style="stop-color:#ddd;stop-opacity:1" id="stop6943" offset="1"/></linearGradient><linearGradient id="linearGradient6951"><stop style="stop-color:#6e3d09;stop-opacity:1" id="stop6953" offset="0"/><stop style="stop-color:#ea8113;stop-opacity:1" id="stop6959" offset=".242"/><stop style="stop-color:#5c3307;stop-opacity:1" id="stop6961" offset=".621"/><stop style="stop-color:#e07c12;stop-opacity:1" id="stop6955" offset="1"/></linearGradient><linearGradient id="linearGradient6963"><stop style="stop-color:#696969;stop-opacity:1" id="stop6965" offset="0"/><stop style="stop-color:#000;stop-opacity:1" id="stop6967" offset="1"/></linearGradient><linearGradient id="linearGradient6975"><stop style="stop-color:#000;stop-opacity:1" id="stop6977" offset="0"/><stop style="stop-color:#000;stop-opacity:0" id="stop6979" offset="1"/></linearGradient><linearGradient id="linearGradient2446"><stop style="stop-color:#fff;stop-opacity:1" id="stop2448" offset="0"/><stop style="stop-color:#fff;stop-opacity:0" id="stop2450" offset="1"/></linearGradient><linearGradient id="linearGradient6629"><stop style="stop-color:#aeaeae;stop-opacity:1" id="stop6631" offset="0"/><stop style="stop-color:#c4c4c4;stop-opacity:0" id="stop6633" offset="1"/></linearGradient><linearGradient id="linearGradient6651"><stop style="stop-color:#f2f2f2;stop-opacity:1" id="stop6653" offset="0"/><stop style="stop-color:#c3c3c3;stop-opacity:1" id="stop6655" offset="1"/></linearGradient><linearGradient id="linearGradient6721"><stop style="stop-color:#729fcf;stop-opacity:1" id="stop6723" offset="0"/><stop style="stop-color:#3c74b1;stop-opacity:1" id="stop6725" offset="1"/></linearGradient><linearGradient id="linearGradient6748"><stop style="stop-color:#729fcf;stop-opacity:1" id="stop6750" offset="0"/><stop style="stop-color:#2b5582;stop-opacity:1" id="stop6752" offset="1"/></linearGradient><linearGradient id="linearGradient6835"><stop style="stop-color:#fff;stop-opacity:1" id="stop6837" offset="0"/><stop style="stop-color:#fff;stop-opacity:0" id="stop6839" offset="1"/></linearGradient><linearGradient id="linearGradient2282" x1="19.395" x2="22.225" y1="30.001" y2="32.643" gradientTransform="translate(38.07104,6.705107)" gradientUnits="userSpaceOnUse" xlink:href="#linearGradient6939"/><linearGradient id="linearGradient3203" x1="56.163" x2="54.484" y1="41.839" y2="40.248" gradientUnits="userSpaceOnUse" xlink:href="#linearGradient3197"/><linearGradient id="linearGradient3211" x1="19.395" x2="22.225" y1="30.001" y2="32.643" gradientTransform="translate(38.07104,6.705107)" gradientUnits="userSpaceOnUse" xlink:href="#linearGradient6939"/><linearGradient id="linearGradient3213" x1="56.163" x2="54.484" y1="41.839" y2="40.248" gradientUnits="userSpaceOnUse" xlink:href="#linearGradient3197"/><linearGradient id="linearGradient3249" x1="54.837" x2="56.429" y1="39.806" y2="41.308" gradientUnits="userSpaceOnUse" xlink:href="#linearGradient3243"/><linearGradient id="linearGradient3263" x1="12.813" x2="15.119" y1="32.057" y2="34.001" gradientUnits="userSpaceOnUse" xlink:href="#linearGradient3243"/><linearGradient id="linearGradient3266" x1="54.837" x2="56.429" y1="39.806" y2="41.308" gradientTransform="translate(-51.85143,3.42342)" gradientUnits="userSpaceOnUse" xlink:href="#linearGradient3243"/><linearGradient id="linearGradient3269" x1="19.395" x2="22.225" y1="30.001" y2="32.643" gradientTransform="translate(-13.78039,10.12853)" gradientUnits="userSpaceOnUse" xlink:href="#linearGradient6939"/><linearGradient id="linearGradient11844" x1="2.102" x2="4.135" y1="43.936" y2="45.881" gradientUnits="userSpaceOnUse" xlink:href="#linearGradient11573"/><linearGradient id="linearGradient11846" x1="19.269" x2="21.399" y1="25.539" y2="27.616" gradientTransform="translate(0.374275,-0.411242)" gradientUnits="userSpaceOnUse" xlink:href="#linearGradient11573"/><linearGradient id="linearGradient11848" x1="19.395" x2="22.225" y1="30.001" y2="32.643" gradientTransform="translate(-13.78039,10.12853)" gradientUnits="userSpaceOnUse" xlink:href="#linearGradient6939"/><linearGradient id="linearGradient11850" x1="27.848" x2="29.624" y1="16.543" y2="18.266" gradientTransform="translate(1.117749,-1.179036)" gradientUnits="userSpaceOnUse" xlink:href="#linearGradient11573"/><linearGradient id="linearGradient11852" x1="19.395" x2="22.225" y1="30.001" y2="32.643" gradientTransform="translate(7.629341,-13.05859)" gradientUnits="userSpaceOnUse" xlink:href="#linearGradient6939"/><linearGradient id="linearGradient11854" x1="19.395" x2="22.225" y1="30.001" y2="32.643" gradientTransform="translate(3.014336,-8.04609)" gradientUnits="userSpaceOnUse" xlink:href="#linearGradient6939"/><linearGradient id="linearGradient11856" x1="27.848" x2="29.624" y1="16.543" y2="18.266" gradientTransform="translate(11.0575,-11.78)" gradientUnits="userSpaceOnUse" xlink:href="#linearGradient11599"/><linearGradient id="linearGradient14628" x1="52.718" x2="67.466" y1="2.316" y2="2.316" gradientTransform="matrix(0.862482,0,0,0.580718,-16.25697,11.01348)" gradientUnits="userSpaceOnUse" xlink:href="#linearGradient6721"/><linearGradient id="linearGradient14626" x1="53.169" x2="69.691" y1="24.245" y2="24.245" gradientTransform="matrix(0.71944,0,0,0.718914,-7.696252,9.471728)" gradientUnits="userSpaceOnUse" xlink:href="#linearGradient6651"/><linearGradient id="linearGradient14624" x1="61.872" x2="61.872" y1="29.615" y2="41.459" gradientTransform="matrix(0.888619,0,0,0.718914,-18.29768,9.471728)" gradientUnits="userSpaceOnUse" xlink:href="#linearGradient6629"/><linearGradient id="linearGradient14622" x1="49.853" x2="62.768" y1="64.26" y2="64.26" gradientTransform="matrix(0.718914,0,0,0.718914,-1.897103,-22.42481)" gradientUnits="userSpaceOnUse" xlink:href="#linearGradient6748"/><linearGradient id="linearGradient14620" x1="60.169" x2="60.441" y1="40.12" y2="43.87" gradientTransform="matrix(0.737307,0,0,0.770854,-8.532023,7.121636)" gradientUnits="userSpaceOnUse" xlink:href="#linearGradient6651"/><linearGradient id="linearGradient14618" x1="48.25" x2="48.25" y1="54.75" y2="71.25" gradientTransform="matrix(0.718914,0,0,0.718914,-1.897103,-20.68606)" gradientUnits="userSpaceOnUse" xlink:href="#linearGradient6835"/><radialGradient id="radialGradient14616" cx="26.782" cy="42.343" r="14.407" fx="26.782" fy="42.343" gradientTransform="matrix(1,0,0,0.282209,0,30.39355)" gradientUnits="userSpaceOnUse" xlink:href="#linearGradient6975"/><linearGradient id="linearGradient14614" x1="13.236" x2="7.752" y1="37.752" y2="42.282" gradientTransform="matrix(0.852298,0,0,0.852298,-1.675107,3.753977)" gradientUnits="userSpaceOnUse" xlink:href="#linearGradient2446"/><radialGradient id="radialGradient14612" cx="26.782" cy="42.343" r="14.407" fx="26.782" fy="42.343" gradientTransform="matrix(1,0,0,0.282209,0,30.39355)" gradientUnits="userSpaceOnUse" xlink:href="#linearGradient6975"/><radialGradient id="radialGradient14610" cx="15.415" cy="35.357" r="7.579" fx="15.415" fy="35.357" gradientTransform="matrix(0.994655,0,0,0.969322,-4.583017,0.165919)" gradientUnits="userSpaceOnUse" xlink:href="#linearGradient6963"/><linearGradient id="linearGradient14608" x1="28.059" x2="33.437" y1="18.868" y2="23.743" gradientTransform="translate(-3.90695,-1.802856)" gradientUnits="userSpaceOnUse" xlink:href="#linearGradient6951"/><linearGradient id="linearGradient14606" x1="19.395" x2="23.109" y1="30.001" y2="33.439" gradientTransform="translate(-3.90695,-1.802856)" gradientUnits="userSpaceOnUse" xlink:href="#linearGradient6939"/><linearGradient id="linearGradient14596"><stop style="stop-color:#bdbdbd;stop-opacity:1" id="stop14598" offset="0"/><stop style="stop-color:#e2e2e2;stop-opacity:1" id="stop14600" offset=".333"/><stop style="stop-color:#a3a3a3;stop-opacity:1" id="stop14602" offset=".667"/><stop style="stop-color:#ddd;stop-opacity:1" id="stop14604" offset="1"/></linearGradient><linearGradient id="linearGradient14586"><stop style="stop-color:#6e3d09;stop-opacity:1" id="stop14588" offset="0"/><stop style="stop-color:#ea8113;stop-opacity:1" id="stop14590" offset=".242"/><stop style="stop-color:#5c3307;stop-opacity:1" id="stop14592" offset=".621"/><stop style="stop-color:#e07c12;stop-opacity:1" id="stop14594" offset="1"/></linearGradient><linearGradient id="linearGradient14580"><stop style="stop-color:#696969;stop-opacity:1" id="stop14582" offset="0"/><stop style="stop-color:#000;stop-opacity:1" id="stop14584" offset="1"/></linearGradient><linearGradient id="linearGradient14562"><stop style="stop-color:#aeaeae;stop-opacity:1" id="stop14564" offset="0"/><stop style="stop-color:#c4c4c4;stop-opacity:0" id="stop14566" offset="1"/></linearGradient><linearGradient id="linearGradient14556"><stop style="stop-color:#f2f2f2;stop-opacity:1" id="stop14558" offset="0"/><stop style="stop-color:#c3c3c3;stop-opacity:1" id="stop14560" offset="1"/></linearGradient><linearGradient id="linearGradient14550"><stop style="stop-color:#729fcf;stop-opacity:1" id="stop14552" offset="0"/><stop style="stop-color:#3c74b1;stop-opacity:1" id="stop14554" offset="1"/></linearGradient><linearGradient id="linearGradient14544"><stop style="stop-color:#729fcf;stop-opacity:1" id="stop14546" offset="0"/><stop style="stop-color:#2b5582;stop-opacity:1" id="stop14548" offset="1"/></linearGradient><linearGradient id="linearGradient14954" x1="19.395" x2="22.225" y1="30.001" y2="32.643" gradientTransform="translate(4.1746,-9.271088)" gradientUnits="userSpaceOnUse" xlink:href="#linearGradient6939"/><linearGradient id="linearGradient3403" x1="2.102" x2="4.135" y1="43.936" y2="45.881" gradientUnits="userSpaceOnUse" xlink:href="#linearGradient11573"/><linearGradient id="linearGradient3405" x1="19.269" x2="21.399" y1="25.539" y2="27.616" gradientTransform="translate(0.374275,-0.411242)" gradientUnits="userSpaceOnUse" xlink:href="#linearGradient11573"/><linearGradient id="linearGradient3407" x1="19.395" x2="22.225" y1="30.001" y2="32.643" gradientTransform="translate(-13.78039,10.12853)" gradientUnits="userSpaceOnUse" xlink:href="#linearGradient6939"/><linearGradient id="linearGradient3409" x1="27.848" x2="29.624" y1="16.543" y2="18.266" gradientTransform="translate(1.117749,-1.179036)" gradientUnits="userSpaceOnUse" xlink:href="#linearGradient11573"/><linearGradient id="linearGradient3411" x1="19.395" x2="22.225" y1="30.001" y2="32.643" gradientTransform="translate(7.629341,-13.05859)" gradientUnits="userSpaceOnUse" xlink:href="#linearGradient6939"/><linearGradient id="linearGradient3413" x1="19.395" x2="22.225" y1="30.001" y2="32.643" gradientTransform="translate(4.1746,-9.271088)" gradientUnits="userSpaceOnUse" xlink:href="#linearGradient6939"/><linearGradient id="linearGradient3415" x1="27.848" x2="29.624" y1="16.543" y2="18.266" gradientTransform="translate(11.0575,-11.78)" gradientUnits="userSpaceOnUse" xlink:href="#linearGradient11599"/><linearGradient id="linearGradient3417" x1="19.395" x2="22.225" y1="30.001" y2="32.643" gradientTransform="matrix(0.984808,0.173648,-0.173648,0.984808,-6.57769,0.52398)" gradientUnits="userSpaceOnUse" xlink:href="#linearGradient6939"/><linearGradient id="linearGradient3421" x1="19.395" x2="22.225" y1="30.001" y2="32.643" gradientTransform="matrix(0.984808,0.173648,-0.173648,0.984808,-6.57769,0.52398)" gradientUnits="userSpaceOnUse" xlink:href="#linearGradient6939"/></defs><path style="fill:url(#linearGradient2552);fill-opacity:1;fill-rule:evenodd;stroke:#000;stroke-width:1;stroke-linecap:butt;stroke-linejoin:miter;stroke-miterlimit:4;stroke-dasharray:none;stroke-opacity:1" id="path2498" d="M 1.7363208,32.76676 C 8.3248508,34.7511 17.971871,31.961 22.133911,29.7435 C 30.287021,25.39957 33.685501,31.30328 34.801441,32.05439 C 36.530681,33.53598 31.237641,37.58917 31.573111,40.88925 C 31.759321,42.72109 32.505111,43.61576 32.505111,43.61576 C 33.965331,39.48164 38.580621,41.17748 38.314881,36.8757 C 41.818991,38.85336 42.570681,35.7035 46.636481,36.33108 C 46.061891,35.45605 45.320271,34.15277 43.725911,33.46963 C 42.026491,32.83221 39.153851,32.92116 38.407801,30.75286 C 38.271601,28.30032 38.308721,15.21709 32.388811,11.21743 C 31.523921,9.4752702 32.457261,6.9929501 34.140491,5.2970101 C 35.662491,3.7635101 37.948761,2.3513201 38.731321,1.4507101 C 35.188721,1.4126301 31.659811,2.5223101 28.205141,4.3913401 C 26.403551,5.3660301 24.817171,6.7674501 23.692801,7.2919301 C 13.541991,5.2789001 2.3520908,13.65739 1.2225508,28.3597 C 1.1314008,29.5462 1.1494908,32.39912 1.7363208,32.76676 z"/><path style="opacity:1;fill:url(#linearGradient4158);fill-opacity:1;fill-rule:evenodd;stroke:none;stroke-width:.95343304;stroke-linecap:butt;stroke-linejoin:miter;stroke-miterlimit:4;stroke-dasharray:none;stroke-opacity:1" id="path4148" d="M 5.2335808,32.81055 C 11.622781,33.50363 18.209491,30.83856 22.270961,28.96994 C 29.345491,25.669 32.552281,29.14676 34.135611,30.66586 C 34.308901,30.89994 34.307271,29.07354 32.433581,27.87203 C 24.899961,24.33752 34.461671,24.30594 33.953881,23.00814 C 33.369651,21.51499 26.991311,22.37165 25.878431,22.75436 C 21.878331,24.12997 20.471841,26.36926 18.438621,26.78615 C 14.693991,27.4985 11.800931,25.476 9.4333807,28.43233 C 5.2947208,33.60023 4.5869808,32.74041 5.2335808,32.81055 z"/><path style="opacity:1;fill:url(#linearGradient4197);fill-opacity:1;fill-rule:evenodd;stroke:none;stroke-width:.95343304;stroke-linecap:butt;stroke-linejoin:miter;stroke-miterlimit:4;stroke-dasharray:none;stroke-opacity:1" id="path4188" d="M 2.2770308,32.01551 C 4.8209308,24.64639 13.446641,25.07661 16.854831,21.56745 C 20.208301,18.11463 23.971781,7.3217801 36.560451,18.71166 C 36.606471,18.75329 34.575411,12.91689 31.738591,10.99031 C 30.909681,9.3119602 24.850741,7.3220301 23.773151,7.8273001 C 13.337511,5.8880001 2.9583508,14.66672 1.8758008,28.91892 C 1.7889808,30.062 1.7146108,31.66134 2.2770308,32.01551 z"/><path style="fill:url(#linearGradient4185);fill-opacity:1;fill-rule:evenodd;stroke:none;stroke-width:1px;stroke-linecap:butt;stroke-linejoin:miter;stroke-opacity:1" id="path4168" d="M 8.1097416,25.842531 C 7.4359593,24.884336 10.739306,21.488867 11.911822,22.16946 C 12.628902,23.209751 9.601696,27.066888 8.1097416,25.842531 z"/><path style="opacity:.25628142;fill:url(#linearGradient4273);fill-opacity:1;fill-rule:evenodd;stroke:none;stroke-width:1px;stroke-linecap:butt;stroke-linejoin:miter;stroke-opacity:1" id="path4206" d="M 34.151781,40.87835 L 34.813841,40.38179 L 34.758671,37.34731 L 34.151781,40.87835 z"/><path style="opacity:.25125631;fill:url(#linearGradient4265);fill-opacity:1;fill-rule:evenodd;stroke:none;stroke-width:1px;stroke-linecap:butt;stroke-linejoin:miter;stroke-opacity:1" id="path4217" d="M 35.862121,39.83007 L 36.634531,39.44386 L 36.137981,35.52662 L 35.862121,39.83007 z"/><path style="opacity:.23115575;fill:url(#linearGradient4256);fill-opacity:1;fill-rule:evenodd;stroke:none;stroke-width:1px;stroke-linecap:butt;stroke-linejoin:miter;stroke-opacity:1" id="path4219" d="M 41.158671,36.9611 L 42.041431,36.63007 L 38.510401,34.80938 L 41.158671,36.9611 z"/><path style="opacity:.22613065;fill:url(#linearGradient4248);fill-opacity:1;fill-rule:evenodd;stroke:none;stroke-width:1px;stroke-linecap:butt;stroke-linejoin:miter;stroke-opacity:1" id="path4221" d="M 42.900461,36.32662 L 43.806951,36.07732 L 40.610401,34.70615 L 42.900461,36.32662 z"/><path style="opacity:1;fill:none;fill-opacity:1;fill-rule:evenodd;stroke:url(#linearGradient4146);stroke-width:.95343304;stroke-linecap:butt;stroke-linejoin:miter;stroke-miterlimit:4;stroke-dasharray:none;stroke-opacity:1" id="path4134" d="M 2.8895108,32.01551 C 8.8412607,33.57361 17.413831,30.88571 21.341101,28.74943 C 29.034351,24.56461 34.981181,30.34046 35.680621,32.03634 C 36.870381,33.64044 34.470411,35.76668 32.930801,38.8575 C 32.140061,40.44493 32.572791,41.39575 32.572791,41.39575 C 33.919401,39.44691 38.212791,40.2735 37.243291,35.16237 C 41.137221,38.06131 42.424171,35.30807 44.721431,35.32427 C 43.991751,34.38754 43.191931,34.35336 42.406261,34.16399 C 40.802691,33.54991 38.483161,33.60527 37.435441,31.04765 C 37.306931,28.68493 37.929421,17.05318 31.636311,11.87419 C 30.555041,10.54939 30.725551,7.9521601 32.405301,5.7286701 C 32.900791,5.0728001 34.849721,3.5095901 35.588151,2.6419701 C 32.510521,3.2240101 31.213591,3.7627101 27.953781,5.5632901 C 26.253811,6.5022701 25.110451,7.7639701 24.049501,8.2692401 C 14.206081,6.5067201 4.6196108,13.42929 2.4047308,27.23954 C 2.2232108,28.37135 2.0706208,31.66134 2.8895108,32.01551 z"/><g id="g3432"><g id="g11820" transform="matrix(0.984808,0.173648,-0.173648,0.984808,4.319821,-3.493951)"><g id="g3379" transform="translate(3.782059,-4.305959)"><path style="color:#000;fill:url(#linearGradient3403);fill-opacity:1;fill-rule:nonzero;stroke:#c00;stroke-width:1;stroke-linecap:round;stroke-linejoin:miter;marker:none;marker-start:none;marker-mid:none;marker-end:none;stroke-miterlimit:4;stroke-dasharray:none;stroke-dashoffset:0;stroke-opacity:1;visibility:visible;display:inline;overflow:visible" id="path2292" d="M 3.6678274,43.136096 L 5.3838174,44.716363 C 6.4337554,43.515919 11.191757,38.438712 11.191757,38.438712 L 9.4548369,36.923036 C 9.4548369,36.923036 4.9455924,41.774015 3.6678274,43.136096 z"/><path style="color:#000;fill:url(#linearGradient3407);fill-opacity:1;fill-rule:nonzero;stroke:#888a85;stroke-width:1;stroke-linecap:round;stroke-linejoin:miter;marker:none;marker-start:none;marker-mid:none;marker-end:none;stroke-miterlimit:4;stroke-dasharray:none;stroke-dashoffset:0;stroke-opacity:1;visibility:visible;display:inline;overflow:visible" id="path6935" d="M 9.3798921,36.977632 L 11.095882,38.557899 C 12.14582,37.357455 32.719517,15.450785 32.719517,15.450785 L 30.982597,13.935109 C 30.982597,13.935109 10.657657,35.615551 9.3798921,36.977632 z"/></g><path style="color:#000;fill:url(#linearGradient3415);fill-opacity:1;fill-rule:nonzero;stroke:#2e3436;stroke-width:1;stroke-linecap:round;stroke-linejoin:miter;marker:none;marker-start:none;marker-mid:none;marker-end:none;stroke-miterlimit:4;stroke-dasharray:none;stroke-dashoffset:0;stroke-opacity:1;visibility:visible;display:inline;overflow:visible" id="path11595" d="M 34.676553,9.7053399 L 36.455043,11.160607 C 37.504981,9.9601639 41.783263,5.5878763 42.1,5.110676 C 43.214868,4.1209793 41.493403,2.3741139 40.30058,3.72 C 39.73371,4.2605973 35.954318,8.3432589 34.676553,9.7053399 z"/></g><path style="color:#000;fill:url(#linearGradient3421);fill-opacity:1;fill-rule:nonzero;stroke:#888a85;stroke-width:1;stroke-linecap:round;stroke-linejoin:miter;marker:none;marker-start:none;marker-mid:none;marker-end:none;stroke-miterlimit:4;stroke-dasharray:none;stroke-dashoffset:0;stroke-opacity:1;visibility:visible;display:inline;overflow:visible" id="path4782" d="M 3.1259863,37.385763 C 1.7298033,38.631621 2.6856953,40.157401 4.5414953,39.24 C 4.8993219,39.067037 6.4911218,37.770435 6.4911218,37.770435 L 5.024554,35.956942 C 5.024554,35.956942 4.6208613,36.266256 3.1259863,37.385763 z"/><path style="fill:none;fill-rule:evenodd;stroke:#2e3436;stroke-width:1px;stroke-linecap:butt;stroke-linejoin:miter;stroke-opacity:1" id="path4784" d="M 45.38,7.76 C 45.38,7.76 50.38,17.76 45.38,17.76 C 40.38,17.76 45.630004,12.759996 45.38,7.76 z"/><path style="opacity:.53333285;color:#000;fill:#fff;fill-opacity:1;fill-rule:nonzero;stroke:none;stroke-width:1;stroke-linecap:round;stroke-linejoin:miter;marker:none;marker-start:none;marker-mid:none;marker-end:none;stroke-miterlimit:4;stroke-dasharray:none;stroke-dashoffset:0;stroke-opacity:1;visibility:visible;display:inline;overflow:visible" id="path2454" d="M 8.8749989 37.75 A 1.2499999 1.2499999 0 1 1 6.3749992,37.75 A 1.2499999 1.2499999 0 1 1 8.8749989 37.75 z" transform="matrix(0.237867,0,0,0.237867,1.543598,29.32319)"/></g><path style="fill:url(#linearGradient4277);fill-opacity:1;fill-rule:evenodd;stroke:#000;stroke-width:.96744114;stroke-linecap:butt;stroke-linejoin:miter;stroke-miterlimit:4;stroke-dasharray:none;stroke-opacity:1" id="path4275" d="M 19.450291,23.22383 C 22.168421,25.03662 28.856191,30.5826 25.680471,31.40984 C 15.059251,31.02011 16.896751,26.26768 14.182961,25.53368 C 12.719161,24.04968 17.982161,22.53604 19.450291,23.22383 z"/><path style="opacity:1;fill:none;fill-opacity:1;fill-rule:evenodd;stroke:url(#linearGradient4301);stroke-width:.96744114;stroke-linecap:butt;stroke-linejoin:miter;stroke-miterlimit:4;stroke-dasharray:none;stroke-opacity:1" id="path4279" d="M 19.146461,24.13864 C 21.378451,25.77465 26.563631,29.81803 25.199871,30.60107 C 21.104601,30.05266 19.021051,29.4458 17.949761,28.25613 C 16.602891,26.76044 16.164111,25.40127 15.160761,25.03427 C 14.934401,25.05287 17.678331,23.45085 19.146461,24.13864 z"/><path style="opacity:1;color:#000;fill:url(#radialGradient4312);fill-opacity:1;fill-rule:evenodd;stroke:none;stroke-width:1.25;stroke-linecap:butt;stroke-linejoin:round;marker:none;marker-start:none;marker-mid:none;marker-end:none;stroke-miterlimit:4;stroke-dasharray:none;stroke-dashoffset:0;stroke-opacity:1;visibility:visible;display:inline;overflow:visible" id="path4310" d="M 35.443728 33.636894 A 15.291184 3.9332814 0 1 1 4.8613596,33.636894 A 15.291184 3.9332814 0 1 1 35.443728 33.636894 z" transform="matrix(1.475993,0,0,0.71076,-6.402967,20.77848)"/></svg>