<svg xmlns="http://www.w3.org/2000/svg" xmlns:osb="http://www.openswatchbook.org/uri/2009/osb" xmlns:svg="http://www.w3.org/2000/svg" id="svg7384" width="16" height="16" version="1.1"><metadata id="metadata90"/><title id="title9167">Gnome Symbolic Icon Theme</title><defs id="defs7386"><linearGradient id="linearGradient7212" osb:paint="solid"><stop id="stop7214" offset="0" style="stop-color:#000;stop-opacity:1"/></linearGradient></defs><g id="layer9" transform="translate(-343.00022,104.99999)" style="display:inline"><path id="path2498-0" d="m 344.09247,-93.61073 c 2.05836,1.54765 5.18227,-0.25674 6.51076,-0.96332 2.60241,-1.38414 2.99508,0.35298 3.35128,0.59231 0.55196,0.4721 -1.3608,1.96452 -1.25372,3.01605 0.0594,0.5837 0.14121,1.04738 0.14121,1.04738 0.24283,-6e-5 3.01089,-1.37973 2.92607,-2.75043 1.11849,0.63015 1.35842,-0.37351 2.65619,-0.17354 -0.1834,-0.27882 -0.42012,-0.69409 -0.92903,-0.91176 -0.54244,-0.20311 -1.45937,-0.17477 -1.6975,-0.86567 -0.0435,-0.78147 -0.0316,-4.95027 -1.92122,-6.22471 -0.27606,-0.55512 0.0219,-1.34608 0.55913,-1.88647 0.48581,-0.48863 1.21557,-0.93861 1.46535,-1.22557 -1.13077,-0.0121 -2.27658,0.30692 -3.35987,0.93699 -0.85931,0.4998 -1.08142,0.94579 -1.44031,1.11291 -3.24006,-0.64143 -6.81179,2.02827 -7.17233,6.71297 -0.0291,0.37807 -0.0233,1.46572 0.16399,1.58286 z" style="display:inline;fill:#bebebe;fill-opacity:1;fill-rule:evenodd;stroke:none;stroke-width:.99999976;stroke-linecap:butt;stroke-linejoin:miter;stroke-miterlimit:4;stroke-dasharray:none;stroke-opacity:1;enable-background:new"/></g></svg>